<?xml version="1.0" encoding="UTF-8" standalone="no"?>
<!DOCTYPE svg PUBLIC "-//W3C//DTD SVG 1.1//EN"
 "http://www.w3.org/Graphics/SVG/1.1/DTD/svg11.dtd">
<!-- Generated by graphviz version 14.1.1 (20251213.1925)
 -->
<!-- Title: G Pages: 1 -->
<svg width="219pt" height="193pt"
 viewBox="0.00 0.00 219.00 193.00" xmlns="http://www.w3.org/2000/svg" xmlns:xlink="http://www.w3.org/1999/xlink">
<g id="graph0" class="graph" transform="scale(1 1) rotate(0) translate(21.6 171.35)">
<title>G</title>
<polygon fill="#111111" stroke="none" points="-21.6,21.6 -21.6,-171.35 197.35,-171.35 197.35,21.6 -21.6,21.6"/>
<!-- e2e.test.js -->
<g id="node1" class="node">
<title>e2e.test.js</title>
<path fill="none" stroke="#cfffac" d="M118.71,-23.75C118.71,-23.75 57.04,-23.75 57.04,-23.75 53.08,-23.75 49.12,-19.79 49.12,-15.83 49.12,-15.83 49.12,-7.92 49.12,-7.92 49.12,-3.96 53.08,0 57.04,0 57.04,0 118.71,0 118.71,0 122.67,0 126.62,-3.96 126.62,-7.92 126.62,-7.92 126.62,-15.83 126.62,-15.83 126.62,-19.79 122.67,-23.75 118.71,-23.75"/>
<text xml:space="preserve" text-anchor="middle" x="87.88" y="-6.45" font-family="Arial" font-size="14.00" fill="#cfffac">e2e.test.js</text>
</g>
<!-- e2e/create&#45;card.e2e.test.js -->
<g id="node2" class="node">
<title>e2e/create&#45;card.e2e.test.js</title>
<path fill="none" stroke="#cfffac" d="M167.83,-65.75C167.83,-65.75 7.92,-65.75 7.92,-65.75 3.96,-65.75 0,-61.79 0,-57.83 0,-57.83 0,-49.92 0,-49.92 0,-45.96 3.96,-42 7.92,-42 7.92,-42 167.83,-42 167.83,-42 171.79,-42 175.75,-45.96 175.75,-49.92 175.75,-49.92 175.75,-57.83 175.75,-57.83 175.75,-61.79 171.79,-65.75 167.83,-65.75"/>
<text xml:space="preserve" text-anchor="middle" x="87.88" y="-48.45" font-family="Arial" font-size="14.00" fill="#cfffac">e2e/create&#45;card.e2e.test.js</text>
</g>
<!-- postcss.config.js -->
<g id="node3" class="node">
<title>postcss.config.js</title>
<path fill="none" stroke="#cfffac" d="M137.46,-107.75C137.46,-107.75 38.29,-107.75 38.29,-107.75 34.33,-107.75 30.38,-103.79 30.38,-99.83 30.38,-99.83 30.38,-91.92 30.38,-91.92 30.38,-87.96 34.33,-84 38.29,-84 38.29,-84 137.46,-84 137.46,-84 141.42,-84 145.38,-87.96 145.38,-91.92 145.38,-91.92 145.38,-99.83 145.38,-99.83 145.38,-103.79 141.42,-107.75 137.46,-107.75"/>
<text xml:space="preserve" text-anchor="middle" x="87.88" y="-90.45" font-family="Arial" font-size="14.00" fill="#cfffac">postcss.config.js</text>
</g>
<!-- src/contentScript.js -->
<g id="node4" class="node">
<title>src/contentScript.js</title>
<path fill="none" stroke="#cfffac" d="M144.96,-149.75C144.96,-149.75 30.79,-149.75 30.79,-149.75 26.83,-149.75 22.88,-145.79 22.88,-141.83 22.88,-141.83 22.88,-133.92 22.88,-133.92 22.88,-129.96 26.83,-126 30.79,-126 30.79,-126 144.96,-126 144.96,-126 148.92,-126 152.88,-129.96 152.88,-133.92 152.88,-133.92 152.88,-141.83 152.88,-141.83 152.88,-145.79 148.92,-149.75 144.96,-149.75"/>
<text xml:space="preserve" text-anchor="middle" x="87.88" y="-132.45" font-family="Arial" font-size="14.00" fill="#cfffac">src/contentScript.js</text>
</g>
</g>
</svg>
